<?xml version="1.0" encoding="utf-8"?>
<!-- Generator: Adobe Illustrator 16.0.3, SVG Export Plug-In . SVG Version: 6.00 Build 0)  -->
<!DOCTYPE svg PUBLIC "-//W3C//DTD SVG 1.1//EN" "http://www.w3.org/Graphics/SVG/1.1/DTD/svg11.dtd">
<svg version="1.1" id="Layer_1" xmlns="http://www.w3.org/2000/svg" xmlns:xlink="http://www.w3.org/1999/xlink" x="0px" y="0px"
	 width="192px" height="192px" viewBox="201.64 324.945 192 192" enable-background="new 201.64 324.945 192 192"
	 xml:space="preserve">
<rect x="201.64" y="324.945" width="192" height="192"/>
<path fill="#FFFFFF" d="M297.64,507.166c-47.522,0-86.222-38.7-86.222-86.221c0-47.522,38.7-86.222,86.222-86.222
	c47.521,0,86.222,38.7,86.222,86.222C383.862,468.466,345.162,507.166,297.64,507.166z M297.64,346.754
	c-40.905,0-74.191,33.286-74.191,74.191c0,40.906,33.286,74.191,74.191,74.191s74.19-33.285,74.19-74.191
	C371.831,380.04,338.545,346.754,297.64,346.754z M289.219,371.618c-3.409,0-6.016,2.606-6.016,6.015v22.658
	c0,3.609-1.805,6.818-4.611,8.623v-31.281c0-3.409-2.606-6.015-6.015-6.015c-3.41,0-6.016,2.606-6.016,6.015v31.281
	c-2.807-2.005-4.611-5.013-4.611-8.623v-22.658c0-3.409-2.607-6.015-6.016-6.015s-6.015,2.606-6.015,6.015v22.658
	c0,10.427,7.018,19.049,16.643,21.656v42.108c0,3.409,2.606,6.015,6.016,6.015c3.409,0,6.015-2.605,6.015-6.015v-42.108
	c9.625-2.606,16.642-11.429,16.642-21.856v-22.458C295.233,374.224,292.627,371.618,289.219,371.618z M322.504,371.618
	c-12.433,0-22.659,10.026-22.659,22.659v6.215c0,10.427,7.018,19.25,16.645,21.856c0,6.217,0,19.05,0,42.108
	c0,3.408,2.606,6.015,6.015,6.015c3.208,0,6.015-2.606,6.015-5.814c0-23.259,0-36.092,0-42.309
	c9.424-2.606,16.442-11.43,16.442-21.656v-6.215C345.162,381.844,335.136,371.618,322.504,371.618z M333.13,400.291
	c0,5.815-4.812,10.627-10.626,10.627s-10.627-4.812-10.627-10.627v-6.215c0-5.815,4.813-10.627,10.627-10.627
	s10.626,4.812,10.626,10.627V400.291z"/>
</svg>
