<?xml version="1.0" encoding="utf-8"?>
<!-- Generator: Adobe Illustrator 16.0.3, SVG Export Plug-In . SVG Version: 6.00 Build 0)  -->
<!DOCTYPE svg PUBLIC "-//W3C//DTD SVG 1.1//EN" "http://www.w3.org/Graphics/SVG/1.1/DTD/svg11.dtd">
<svg version="1.1" id="Layer_1" xmlns="http://www.w3.org/2000/svg" xmlns:xlink="http://www.w3.org/1999/xlink" x="0px" y="0px"
	 width="512px" height="512px" viewBox="41.64 164.945 512 512" enable-background="new 41.64 164.945 512 512"
	 xml:space="preserve">
<rect x="41.641" y="164.945" width="512" height="512"/>
<path fill="#FFFFFF" d="M297.64,650.867c-126.725,0-229.924-103.2-229.924-229.923c0-126.725,103.199-229.924,229.924-229.924
	c126.724,0,229.924,103.199,229.924,229.924C527.564,547.667,424.364,650.867,297.64,650.867z M297.64,223.102
	c-109.081,0-197.842,88.763-197.842,197.842c0,109.082,88.762,197.842,197.842,197.842c109.08,0,197.841-88.76,197.841-197.842
	C495.481,311.865,406.72,223.102,297.64,223.102z M275.183,289.406c-9.09,0-16.043,6.951-16.043,16.041v60.422
	c0,9.625-4.813,18.181-12.297,22.993v-83.415c0-9.09-6.95-16.041-16.04-16.041c-9.093,0-16.043,6.951-16.043,16.041v83.415
	c-7.484-5.348-12.297-13.368-12.297-22.993v-60.422c0-9.09-6.953-16.041-16.043-16.041s-16.041,6.951-16.041,16.041v60.422
	c0,27.806,18.715,50.798,44.38,57.748v112.289c0,9.092,6.95,16.039,16.043,16.039c9.09,0,16.04-6.947,16.04-16.039V423.617
	c25.667-6.95,44.379-30.478,44.379-58.283v-59.887C291.222,296.357,284.273,289.406,275.183,289.406z M363.945,289.406
	c-33.153,0-60.425,26.736-60.425,60.423v16.574c0,27.805,18.714,51.333,44.386,58.283c0,16.578,0,50.8,0,112.289
	c0,9.089,6.95,16.039,16.039,16.039c8.555,0,16.039-6.95,16.039-15.505c0-62.023,0-96.245,0-112.823
	c25.13-6.95,43.846-30.479,43.846-57.748v-16.574C424.364,316.677,397.629,289.406,363.945,289.406z M392.281,365.869
	c0,15.508-12.831,28.34-28.336,28.34s-28.339-12.832-28.339-28.34v-16.574c0-15.508,12.834-28.34,28.339-28.34
	s28.336,12.832,28.336,28.34V365.869z"/>
</svg>
